<svg width="162" height="103" viewBox="0 0 162 103" fill="none" xmlns="http://www.w3.org/2000/svg">
<path d="M9.7472 2.64902L7.79443 27.391L5.19072 55.2257L2.26155 82.1326C1.39365 87.2871 2.19646 97.9056 12.3509 99.1427C25.044 100.689 31.8787 101.617 53.0338 100.998C74.1889 100.38 71.5852 100.689 76.7926 96.9777C80.9585 94.0087 82 88.3181 82 85.8439L74.8398 2.64902" stroke="#315818" stroke-width="3"/>
<path d="M18.7754 30.5106L18.7718 30.5615C18.7718 30.5448 18.773 30.5278 18.7754 30.5106Z" fill="#315818"/>
<path d="M8.88745 2.64902H20.7487L18.7718 30.5615C18.7718 30.0142 20.0238 29.248 25.0319 30.5615C31.292 32.2035 29.6446 32.5318 36.5636 32.2035C43.4827 31.8751 45.1301 29.5764 47.7659 29.5764C49.8746 29.5764 59.6271 31.3278 64.2398 32.2035V2.64902H75.1126" stroke="#315818" stroke-width="3"/>
<path d="M9.41724 9.00662H20.0133" stroke="#315818" stroke-width="3"/>
<path d="M65.0464 9.53644H75.6424" stroke="#315818" stroke-width="3"/>
<path d="M37.1722 50.3561C36.5263 50.5087 35.9082 50.847 35.429 51.3181C35.0471 51.6897 34.679 52.2337 33.0053 54.9342C30.9218 58.3113 30.8802 58.3909 31.1996 58.6762C31.4705 58.9217 37.3528 62.206 37.5194 62.206C37.6028 62.206 37.7417 62.1596 37.825 62.1065C37.9014 62.0534 38.8389 60.607 39.9015 58.8952C40.9641 57.1768 41.8461 55.7834 41.86 55.7967C41.9919 55.9294 44.2212 59.1871 44.2004 59.2203C44.1795 59.2469 43.8878 59.4326 43.5475 59.625C42.8878 60.0032 42.7211 60.2023 42.8044 60.5141C42.8878 60.8326 43.0128 60.8525 46.7213 61.0449C50.1938 61.2307 50.2215 61.2307 50.4021 61.098C50.5549 60.9918 50.7493 60.4876 51.68 57.8203C52.2842 56.0953 52.7772 54.5958 52.7772 54.5029C52.7772 54.4034 52.7217 54.2574 52.6522 54.1711C52.43 53.9124 52.173 53.9721 51.4438 54.4564L50.7771 54.8943L49.6451 53.2953C48.3881 51.5238 47.895 50.9864 47.2353 50.6679C46.388 50.2565 46.4297 50.2632 41.7697 50.2698C38.6028 50.2698 37.443 50.2963 37.1722 50.3561ZM39.8251 52.9968C40.5127 53.9588 41.0682 54.7882 41.0682 54.8413C41.0682 54.9142 37.4986 60.7862 37.325 60.9985C37.3111 61.0117 32.4914 58.2782 32.3733 58.1919C32.3594 58.1786 34.2484 55.0536 35.4846 53.0498C35.7415 52.6318 36.0888 52.1608 36.2555 52.0015C36.7624 51.5238 37.4153 51.2849 38.2625 51.265L38.582 51.2584L39.8251 52.9968ZM45.8949 51.3248C46.4366 51.3977 46.9783 51.6432 47.3394 51.975C47.4853 52.1143 48.2145 53.0764 48.9506 54.1181C49.6937 55.1531 50.3327 56.0223 50.3743 56.0488C50.5202 56.1483 50.8466 56.1019 51.0619 55.9559C51.2008 55.8564 51.2633 55.8431 51.2355 55.9095C51.2146 55.9559 50.8813 56.9246 50.4854 58.0592C50.0965 59.1871 49.7562 60.1359 49.7354 60.1558C49.6937 60.189 45.9852 60.0099 45.2074 59.9369L44.9643 59.917L45.1865 59.7909C45.4643 59.6317 45.5824 59.3729 45.499 59.1473C45.4574 59.0611 44.2212 57.2896 42.7419 55.2128C41.2696 53.1427 40.0404 51.4044 40.0196 51.3513C39.9918 51.2717 40.4154 51.2584 42.7142 51.2584C44.2212 51.2584 45.6518 51.2916 45.8949 51.3248Z" fill="#315818" stroke="#315818" stroke-width="1.4"/>
<path d="M51.8396 62.5112C50.0826 63.2942 48.5964 63.9776 48.5409 64.0306C48.4922 64.0837 48.4436 64.2231 48.4506 64.3425C48.4506 64.4818 49.027 65.7424 50.027 67.786C50.8882 69.5642 51.5966 71.0371 51.5966 71.057C51.5966 71.0769 50.6451 71.0968 49.4853 71.0968H47.3741L47.3463 70.294C47.3255 69.5111 47.3186 69.4912 47.131 69.3319C46.9227 69.1594 46.7352 69.1329 46.5268 69.239C46.4157 69.2988 42.3808 74.2351 42.1724 74.5735C42.1238 74.6531 42.0891 74.7659 42.0822 74.8256C42.0822 74.9716 46.2768 80.326 46.4782 80.4322C46.7213 80.5582 46.8671 80.5317 47.0894 80.326C47.2908 80.1336 47.2908 80.1203 47.2908 79.3639V78.5943H49.534C51.9924 78.5943 52.1244 78.581 52.9508 78.1763C53.7842 77.7782 54.2703 77.1744 58.2358 71.6741C58.7984 70.8978 58.9998 70.4333 59.1178 69.6969C59.2567 68.7746 59.1873 68.5822 57.2983 64.7008C56.3746 62.8098 55.569 61.2174 55.4996 61.171C55.4371 61.1245 55.3051 61.0847 55.2079 61.0847C55.1107 61.0847 53.5967 61.7283 51.8396 62.5112ZM56.4024 65.3311C57.1941 66.95 57.8955 68.423 57.9511 68.6021C58.1803 69.3253 58.0483 70.1149 57.5691 70.8182L57.2913 71.2295L55.0551 71.2163L52.8189 71.1963L51.2702 67.9187C50.416 66.1206 49.7284 64.6344 49.7423 64.6211C49.8256 64.5415 54.8329 62.3454 54.8954 62.3653C54.9301 62.3719 55.6107 63.7122 56.4024 65.3311ZM46.5199 71.966C46.6727 72.0854 46.881 72.0921 50.2354 72.0987C52.1869 72.1053 54.4162 72.1319 55.194 72.1518L56.6108 72.1916L55.0621 74.3479C54.2148 75.5356 53.3814 76.6503 53.2008 76.8228C52.8189 77.2076 52.2008 77.5128 51.6313 77.599C51.4021 77.6322 50.1659 77.6654 48.8811 77.6654C46.6241 77.6654 46.5477 77.672 46.4227 77.7981C46.3532 77.8777 46.2768 78.0569 46.256 78.2028L46.2143 78.4749L44.7976 76.6834C44.0128 75.7015 43.3739 74.8854 43.3739 74.8655C43.3669 74.8456 44.0267 74.0228 44.8254 73.0342L46.2838 71.2295L46.3254 71.5414C46.3463 71.747 46.4157 71.8864 46.5199 71.966Z" fill="#315818" stroke="#315818" stroke-width="1.4"/>
<path d="M28.887 62.0667C27.0327 62.4648 25.4701 62.8032 25.4007 62.8297C25.2062 62.9094 25.109 63.2345 25.2062 63.4667C25.2687 63.6193 25.4424 63.7321 25.9979 64.0041C26.3799 64.1899 26.7063 64.3558 26.7202 64.3624C26.7341 64.369 26.3591 65.152 25.8938 66.0941C25.4285 67.0429 24.9909 67.9784 24.9146 68.1775C24.7201 68.7215 24.6784 69.4514 24.8173 70.0419C24.9562 70.6324 25.0673 70.8381 27.4286 74.6731C29.387 77.8578 29.5884 78.1033 30.4774 78.5545C31.3246 78.9791 31.4496 78.9924 35.811 78.9924H39.714L39.9085 78.8332L40.1029 78.6739V75.1508V71.6343L39.9432 71.4817L39.7834 71.3291L35.9777 71.2959C33.8803 71.276 32.1441 71.2428 32.1163 71.2229C32.0816 71.1831 33.8178 67.6268 33.9151 67.5339C33.9289 67.5206 34.2554 67.66 34.6443 67.8391C35.0262 68.0249 35.4013 68.1775 35.4707 68.1775C35.6443 68.1775 35.8874 67.9453 35.943 67.7329C35.9985 67.5339 36.1096 67.7462 34.179 64.2032C32.7831 61.6288 32.5955 61.3435 32.3247 61.3502C32.29 61.3502 30.7413 61.6753 28.887 62.0667ZM32.1719 62.8231C32.2761 63.0089 32.7692 63.9245 33.2692 64.8401C34.0817 66.3529 34.1581 66.5121 33.9915 66.4524C33.7206 66.3529 33.5331 66.3728 33.3734 66.5121C33.29 66.5851 32.2761 68.5424 31.1093 70.858C29.9426 73.1802 28.9773 75.0778 28.9564 75.0778C28.8801 75.0778 26.0118 70.3206 25.9216 70.0419C25.7757 69.5974 25.7965 68.8012 25.9563 68.4031C26.0327 68.2239 26.5188 67.2088 27.0397 66.1406C27.5605 65.079 27.9842 64.1501 27.9842 64.0771C27.9842 63.9046 27.7272 63.606 27.505 63.5198C27.38 63.4667 27.3591 63.4402 27.4286 63.4203C27.7619 63.334 31.7899 62.4847 31.8733 62.4781C31.9288 62.4781 32.0608 62.6241 32.1719 62.8231ZM39.0265 75.1441V77.9308H35.679C33.8317 77.9308 32.1302 77.9043 31.8941 77.8711C31.3663 77.7981 30.8107 77.5659 30.4565 77.2673C30.1718 77.0218 29.6509 76.3318 29.6509 76.1925C29.6509 76.1394 30.0121 75.3896 30.4565 74.5138C30.901 73.638 31.3177 72.7954 31.3941 72.6362L31.5191 72.3575H35.2762H39.0265V75.1441Z" fill="#315818" stroke="#315818" stroke-width="1.4"/>
<mask id="path-9-inside-1_176_50" fill="white">
<path d="M25.0317 0.200015C24.8922 0.326696 24.7945 0.493381 24.7596 0.653399C24.6898 1.00677 24.7805 3.54039 24.9131 4.8872C25.2062 7.98755 25.925 10.5145 26.9858 12.1813C27.3557 12.7681 28.0606 13.5948 28.4723 13.9282C29.7425 14.9683 31.4872 15.5084 33.5599 15.5084C35.0603 15.5017 36.5468 15.2017 37.5867 14.6883C38.0612 14.4549 37.9566 14.3483 38.5009 15.6217C39.9944 19.1221 40.769 23.2692 40.9156 28.4898C40.9714 30.5434 40.9993 30.6901 41.3483 30.8634C41.6833 31.0301 42.0671 30.9834 42.3114 30.7567C42.5626 30.5167 42.5766 30.4167 42.6324 28.7965C42.751 25.0228 43.6373 21.3557 45.1099 18.5621C45.403 18.002 46.045 16.9152 46.1218 16.8285C46.1358 16.8152 46.2963 16.9285 46.4707 17.0752C46.8825 17.4219 47.8526 17.902 48.6481 18.1487C49.5903 18.442 50.5115 18.5687 51.67 18.5687C55.2641 18.5554 57.5322 17.0819 58.921 13.8549C59.8632 11.668 60.3238 9.07433 60.4354 5.32725C60.5052 2.93365 60.6378 3.05366 57.9649 3.107C52.4167 3.22702 48.7807 4.16045 46.4498 6.08067C45.0191 7.25413 44.2026 9.22768 44.2026 11.4879C44.2026 12.6814 44.4957 14.1149 44.9354 15.055L45.1099 15.435L44.6632 16.1151C44.0561 17.0419 43.5745 17.9153 43.1698 18.8287C42.7789 19.7022 42.2416 21.1423 42.109 21.6757C42.0601 21.8691 42.0113 22.0158 41.9903 22.0024C41.9764 21.9824 41.8717 21.509 41.767 20.949C41.2645 18.3954 40.5876 16.2418 39.6734 14.2816L39.3105 13.5015L39.6315 13.0681C40.7202 11.5746 41.2227 9.18101 40.8877 7.06078C40.5527 4.96054 39.6245 3.50038 37.9077 2.40693C35.5279 0.886758 32.1641 0.140009 27.2091 0.0399975L25.2551 -6.95766e-06L25.0317 0.200015ZM29.9797 1.72018C34.5648 2.16023 37.5727 3.40704 38.6335 5.32058C39.3733 6.66073 39.5547 8.66095 39.1011 10.4211C38.9615 10.9479 38.5358 11.9547 38.4521 11.9547C38.4311 11.9547 38.2287 11.688 37.9984 11.3679C36.7422 9.57439 35.4512 8.35425 33.2319 6.84742C32.4503 6.31403 32.2688 6.22068 32.0385 6.22068C31.6896 6.22068 31.3964 6.4207 31.2918 6.72074C31.1173 7.22079 31.3057 7.45415 32.5828 8.32092C34.2927 9.48104 35.3744 10.5078 36.4631 11.988C36.6794 12.2814 36.9376 12.6614 37.0423 12.8347L37.2308 13.1481L36.9656 13.2748C35.1999 14.1282 32.2688 14.1682 30.5311 13.3615C29.3028 12.7947 28.3606 11.6813 27.6558 9.96776C27.0068 8.37425 26.5531 5.98732 26.4415 3.55372C26.4205 3.06033 26.3856 2.40026 26.3647 2.09356L26.3298 1.5335L27.6209 1.5735C28.3327 1.60017 29.3935 1.66684 29.9797 1.72018ZM58.8303 5.10056C58.8093 5.36725 58.7745 6.02066 58.7535 6.55405C58.6488 8.99432 58.1812 11.4813 57.5322 13.0614C57.0297 14.2682 56.2062 15.435 55.4944 15.9418C53.8334 17.1286 51 17.3619 48.6551 16.5152C48.1736 16.3418 47.2245 15.7484 47.1547 15.5817C47.1128 15.475 47.3989 15.1217 48.2015 14.3149C49.36 13.1414 51.0279 11.968 52.7377 11.1212C53.6799 10.6478 53.8613 10.4878 53.8613 10.1144C53.8613 9.68107 53.5194 9.35436 53.0518 9.35436C52.7866 9.35436 51.984 9.70774 51.0628 10.2211C49.5205 11.0946 48.4109 11.9146 47.1547 13.1281L46.2265 14.0149L46.1567 13.7415C45.6263 11.8613 45.7798 9.81441 46.5615 8.38759C47.2175 7.20079 48.8366 6.14734 51 5.52727C52.7517 5.01388 55.5642 4.65384 58.0068 4.62717L58.8652 4.62051L58.8303 5.10056Z"/>
</mask>
<path d="M25.0317 0.200015C24.8922 0.326696 24.7945 0.493381 24.7596 0.653399C24.6898 1.00677 24.7805 3.54039 24.9131 4.8872C25.2062 7.98755 25.925 10.5145 26.9858 12.1813C27.3557 12.7681 28.0606 13.5948 28.4723 13.9282C29.7425 14.9683 31.4872 15.5084 33.5599 15.5084C35.0603 15.5017 36.5468 15.2017 37.5867 14.6883C38.0612 14.4549 37.9566 14.3483 38.5009 15.6217C39.9944 19.1221 40.769 23.2692 40.9156 28.4898C40.9714 30.5434 40.9993 30.6901 41.3483 30.8634C41.6833 31.0301 42.0671 30.9834 42.3114 30.7567C42.5626 30.5167 42.5766 30.4167 42.6324 28.7965C42.751 25.0228 43.6373 21.3557 45.1099 18.5621C45.403 18.002 46.045 16.9152 46.1218 16.8285C46.1358 16.8152 46.2963 16.9285 46.4707 17.0752C46.8825 17.4219 47.8526 17.902 48.6481 18.1487C49.5903 18.442 50.5115 18.5687 51.67 18.5687C55.2641 18.5554 57.5322 17.0819 58.921 13.8549C59.8632 11.668 60.3238 9.07433 60.4354 5.32725C60.5052 2.93365 60.6378 3.05366 57.9649 3.107C52.4167 3.22702 48.7807 4.16045 46.4498 6.08067C45.0191 7.25413 44.2026 9.22768 44.2026 11.4879C44.2026 12.6814 44.4957 14.1149 44.9354 15.055L45.1099 15.435L44.6632 16.1151C44.0561 17.0419 43.5745 17.9153 43.1698 18.8287C42.7789 19.7022 42.2416 21.1423 42.109 21.6757C42.0601 21.8691 42.0113 22.0158 41.9903 22.0024C41.9764 21.9824 41.8717 21.509 41.767 20.949C41.2645 18.3954 40.5876 16.2418 39.6734 14.2816L39.3105 13.5015L39.6315 13.0681C40.7202 11.5746 41.2227 9.18101 40.8877 7.06078C40.5527 4.96054 39.6245 3.50038 37.9077 2.40693C35.5279 0.886758 32.1641 0.140009 27.2091 0.0399975L25.2551 -6.95766e-06L25.0317 0.200015ZM29.9797 1.72018C34.5648 2.16023 37.5727 3.40704 38.6335 5.32058C39.3733 6.66073 39.5547 8.66095 39.1011 10.4211C38.9615 10.9479 38.5358 11.9547 38.4521 11.9547C38.4311 11.9547 38.2287 11.688 37.9984 11.3679C36.7422 9.57439 35.4512 8.35425 33.2319 6.84742C32.4503 6.31403 32.2688 6.22068 32.0385 6.22068C31.6896 6.22068 31.3964 6.4207 31.2918 6.72074C31.1173 7.22079 31.3057 7.45415 32.5828 8.32092C34.2927 9.48104 35.3744 10.5078 36.4631 11.988C36.6794 12.2814 36.9376 12.6614 37.0423 12.8347L37.2308 13.1481L36.9656 13.2748C35.1999 14.1282 32.2688 14.1682 30.5311 13.3615C29.3028 12.7947 28.3606 11.6813 27.6558 9.96776C27.0068 8.37425 26.5531 5.98732 26.4415 3.55372C26.4205 3.06033 26.3856 2.40026 26.3647 2.09356L26.3298 1.5335L27.6209 1.5735C28.3327 1.60017 29.3935 1.66684 29.9797 1.72018ZM58.8303 5.10056C58.8093 5.36725 58.7745 6.02066 58.7535 6.55405C58.6488 8.99432 58.1812 11.4813 57.5322 13.0614C57.0297 14.2682 56.2062 15.435 55.4944 15.9418C53.8334 17.1286 51 17.3619 48.6551 16.5152C48.1736 16.3418 47.2245 15.7484 47.1547 15.5817C47.1128 15.475 47.3989 15.1217 48.2015 14.3149C49.36 13.1414 51.0279 11.968 52.7377 11.1212C53.6799 10.6478 53.8613 10.4878 53.8613 10.1144C53.8613 9.68107 53.5194 9.35436 53.0518 9.35436C52.7866 9.35436 51.984 9.70774 51.0628 10.2211C49.5205 11.0946 48.4109 11.9146 47.1547 13.1281L46.2265 14.0149L46.1567 13.7415C45.6263 11.8613 45.7798 9.81441 46.5615 8.38759C47.2175 7.20079 48.8366 6.14734 51 5.52727C52.7517 5.01388 55.5642 4.65384 58.0068 4.62717L58.8652 4.62051L58.8303 5.10056Z" fill="#315818"/>
<path d="M25.0317 0.200015L24.3597 -0.540488L24.3646 -0.544883L25.0317 0.200015ZM24.7596 0.653399L23.7785 0.459649L23.7804 0.449975L23.7825 0.440341L24.7596 0.653399ZM24.9131 4.8872L25.9083 4.78922L25.9087 4.79308L24.9131 4.8872ZM26.9858 12.1813L27.8295 11.6444L27.8318 11.6481L26.9858 12.1813ZM28.4723 13.9282L29.1016 13.151L29.1059 13.1545L28.4723 13.9282ZM33.5599 15.5084L33.5643 16.5084H33.5599V15.5084ZM37.5867 14.6883L37.144 13.7916L37.1454 13.7909L37.5867 14.6883ZM38.5009 15.6217L39.4204 15.2287L39.4207 15.2293L38.5009 15.6217ZM40.9156 28.4898L41.9152 28.4618L41.9152 28.4626L40.9156 28.4898ZM41.3483 30.8634L41.7932 29.9678L41.7938 29.9681L41.3483 30.8634ZM42.3114 30.7567L43.0021 31.4798L42.9969 31.4848L42.9916 31.4897L42.3114 30.7567ZM42.6324 28.7965L43.6319 28.8279L43.6318 28.831L42.6324 28.7965ZM45.1099 18.5621L45.9959 19.0257L45.9945 19.0283L45.1099 18.5621ZM46.1218 16.8285L45.3732 16.1655L45.4009 16.1343L45.431 16.1055L46.1218 16.8285ZM46.4707 17.0752L47.1143 16.3098L47.1148 16.3103L46.4707 17.0752ZM48.6481 18.1487L48.9443 17.1935L48.9454 17.1939L48.6481 18.1487ZM51.67 18.5687L51.6737 19.5687H51.67V18.5687ZM58.921 13.8549L58.0025 13.4596L58.0026 13.4592L58.921 13.8549ZM60.4354 5.32725L61.435 5.35639L61.435 5.35704L60.4354 5.32725ZM57.9649 3.107L57.9433 2.10724L57.945 2.1072L57.9649 3.107ZM46.4498 6.08067L47.0856 6.8525L47.084 6.85385L46.4498 6.08067ZM44.9354 15.055L45.8413 14.6313L45.8442 14.6378L44.9354 15.055ZM45.1099 15.435L46.0187 15.0178L46.2497 15.5211L45.9457 15.984L45.1099 15.435ZM44.6632 16.1151L43.8268 15.5671L43.8274 15.5662L44.6632 16.1151ZM43.1698 18.8287L44.084 19.2339L44.0825 19.2372L43.1698 18.8287ZM42.109 21.6757L43.0794 21.917L43.0785 21.9207L42.109 21.6757ZM41.9903 22.0024L41.4531 22.8459L41.2846 22.7385L41.1703 22.5747L41.9903 22.0024ZM41.767 20.949L42.7482 20.7559L42.75 20.7653L41.767 20.949ZM39.6734 14.2816L38.7671 14.7043L38.7667 14.7034L39.6734 14.2816ZM39.3105 13.5015L38.4038 13.9233L38.1529 13.3841L38.5069 12.9063L39.3105 13.5015ZM39.6315 13.0681L40.4396 13.6572L40.435 13.6633L39.6315 13.0681ZM40.8877 7.06078L41.8752 6.90327L41.8754 6.90472L40.8877 7.06078ZM37.9077 2.40693L37.3705 3.25038L37.3694 3.24966L37.9077 2.40693ZM27.2091 0.0399975L27.189 1.03979L27.1887 1.03979L27.2091 0.0399975ZM25.2551 -6.95766e-06L24.5879 -0.744905L24.8815 -1.00786L25.2755 -0.999797L25.2551 -6.95766e-06ZM29.9797 1.72018L30.0704 0.724285L30.0753 0.724758L29.9797 1.72018ZM38.6335 5.32058L39.5081 4.83574L39.509 4.83732L38.6335 5.32058ZM39.1011 10.4211L40.0695 10.6707L40.0677 10.6773L39.1011 10.4211ZM37.9984 11.3679L37.1867 11.9521L37.1794 11.9416L37.9984 11.3679ZM33.2319 6.84742L32.6701 7.67474L32.6682 7.67342L33.2319 6.84742ZM32.5828 8.32092L32.0214 9.14841L32.0213 9.14835L32.5828 8.32092ZM36.4631 11.988L35.6583 12.5815L35.6575 12.5805L36.4631 11.988ZM37.0423 12.8347L37.8984 12.3178L37.8993 12.3194L37.0423 12.8347ZM37.2308 13.1481L38.0878 12.6328L38.6549 13.576L37.6618 14.0505L37.2308 13.1481ZM36.9656 13.2748L36.5304 12.3744L36.5345 12.3725L36.9656 13.2748ZM30.5311 13.3615L30.95 12.4535L30.9522 12.4545L30.5311 13.3615ZM27.6558 9.96776L26.731 10.3482L26.7297 10.345L27.6558 9.96776ZM26.4415 3.55372L25.4425 3.59956L25.4424 3.59612L26.4415 3.55372ZM26.3647 2.09356L25.367 2.16166L25.3666 2.15574L26.3647 2.09356ZM26.3298 1.5335L25.3317 1.59568L25.2635 0.499976L26.3608 0.533976L26.3298 1.5335ZM27.6209 1.5735L27.6519 0.57396L27.6583 0.574202L27.6209 1.5735ZM58.8303 5.10056L59.8277 5.17306L59.8272 5.17882L58.8303 5.10056ZM58.7535 6.55405L59.7528 6.59327L59.7526 6.59691L58.7535 6.55405ZM57.5322 13.0614L58.4572 13.4414L58.4554 13.4458L57.5322 13.0614ZM55.4944 15.9418L54.913 15.1281L54.9145 15.1271L55.4944 15.9418ZM48.6551 16.5152L48.9938 15.5743L48.9948 15.5746L48.6551 16.5152ZM47.1547 15.5817L46.2323 15.9679L46.2279 15.9576L46.2238 15.9471L47.1547 15.5817ZM48.2015 14.3149L48.9131 15.0175L48.9104 15.0202L48.2015 14.3149ZM52.7377 11.1212L53.1867 12.0148L53.1815 12.0174L52.7377 11.1212ZM51.0628 10.2211L50.57 9.35095L50.576 9.34762L51.0628 10.2211ZM47.1547 13.1281L47.8495 13.8474L47.8455 13.8512L47.1547 13.1281ZM46.2265 14.0149L46.9173 14.7379L45.6806 15.9194L45.2576 14.2622L46.2265 14.0149ZM46.1567 13.7415L47.1191 13.47L47.1225 13.482L47.1256 13.4942L46.1567 13.7415ZM46.5615 8.38759L45.6844 7.90714L45.6863 7.90382L46.5615 8.38759ZM51 5.52727L51.2813 6.48692L51.2755 6.48857L51 5.52727ZM58.0068 4.62717L57.9959 3.62723L57.999 3.6272L58.0068 4.62717ZM58.8652 4.62051L58.8574 3.62054L59.9411 3.61212L59.8625 4.693L58.8652 4.62051ZM25.7038 0.940503C25.7085 0.93623 25.7117 0.932325 25.7152 0.926497C25.7182 0.921549 25.7286 0.902984 25.7366 0.866457L23.7825 0.440341C23.8657 0.0588647 24.0804 -0.287051 24.3597 -0.540472L25.7038 0.940503ZM25.7406 0.847149C25.7491 0.804411 25.7441 0.80966 25.74 0.918768C25.7367 1.00615 25.7351 1.12488 25.7355 1.27214C25.7362 1.56544 25.7448 1.9454 25.7598 2.36169C25.7899 3.19719 25.8448 4.14456 25.9083 4.78922L23.9179 4.98518C23.8488 4.28303 23.792 3.29019 23.7611 2.43383C23.7456 2.00419 23.7363 1.60031 23.7355 1.27709C23.7351 1.11608 23.7368 0.968376 23.7414 0.844304C23.7452 0.741957 23.7526 0.59073 23.7785 0.459649L25.7406 0.847149ZM25.9087 4.79308C26.1946 7.81714 26.8887 10.1661 27.8295 11.6444L26.1422 12.7182C24.9614 10.8628 24.2179 8.15795 23.9175 4.98132L25.9087 4.79308ZM27.8318 11.6481C28.1593 12.1677 28.7956 12.9032 29.1016 13.151L27.8431 14.7054C27.3256 14.2864 26.5521 13.3685 26.1399 12.7146L27.8318 11.6481ZM29.1059 13.1545C30.1539 14.0127 31.6549 14.5084 33.5599 14.5084V16.5084C31.3194 16.5084 29.3311 15.9239 27.8387 14.7019L29.1059 13.1545ZM33.5554 14.5084C34.9492 14.5022 36.276 14.2201 37.144 13.7916L38.0294 15.585C36.8176 16.1832 35.1714 16.5012 33.5643 16.5084L33.5554 14.5084ZM37.1454 13.7909C37.1904 13.7688 37.2183 13.7534 37.2772 13.7226C37.3173 13.7017 37.4132 13.6511 37.5226 13.6128C37.6378 13.5725 37.8531 13.5139 38.1164 13.5608C38.398 13.611 38.6013 13.7567 38.7321 13.8903C38.9296 14.092 39.0485 14.3647 39.1077 14.4968C39.1862 14.672 39.293 14.9305 39.4204 15.2287L37.5814 16.0148C37.4367 15.6762 37.3524 15.4705 37.2826 15.3148C37.2493 15.2406 37.2313 15.2051 37.2234 15.1908C37.2116 15.1696 37.2367 15.2218 37.3031 15.2896C37.3834 15.3715 37.5372 15.4891 37.7656 15.5298C37.9757 15.5672 38.134 15.5178 38.1838 15.5004C38.2277 15.485 38.2497 15.4711 38.2025 15.4957C38.1743 15.5105 38.1016 15.5494 38.028 15.5857L37.1454 13.7909ZM39.4207 15.2293C40.9783 18.8799 41.7664 23.1603 41.9152 28.4618L39.916 28.5179C39.7717 23.3782 39.0105 19.3643 37.5811 16.0142L39.4207 15.2293ZM41.9152 28.4626C41.9443 29.5309 41.9656 29.9825 42.0057 30.2019C42.0226 30.2942 42.0234 30.2178 41.9419 30.1089C41.8507 29.9871 41.7447 29.9438 41.7932 29.9678L40.9034 31.759C40.7774 31.6964 40.5371 31.5697 40.3407 31.3074C40.1541 31.0581 40.079 30.7842 40.0383 30.5615C39.9633 30.1508 39.9427 29.5023 39.916 28.517L41.9152 28.4626ZM41.7938 29.9681C41.7917 29.9671 41.7777 29.9609 41.7507 29.964C41.7238 29.9671 41.6773 29.9809 41.6311 30.0238L42.9916 31.4897C42.4077 32.0316 41.566 32.0887 40.9028 31.7587L41.7938 29.9681ZM41.6206 30.0337C41.6654 29.9908 41.6215 30.0257 41.5827 30.0964C41.5452 30.1648 41.5471 30.2015 41.5581 30.1337C41.5871 29.9556 41.6038 29.608 41.633 28.7621L43.6318 28.831C43.6051 29.6052 43.587 30.1177 43.5322 30.4547C43.5013 30.6444 43.4491 30.8524 43.3366 31.0576C43.2228 31.2652 43.0829 31.4026 43.0021 31.4798L41.6206 30.0337ZM41.6329 28.7651C41.7554 24.8693 42.6692 21.0479 44.2252 18.0958L45.9945 19.0283C44.6055 21.6635 43.7467 25.1762 43.6319 28.8279L41.6329 28.7651ZM44.2239 18.0984C44.3816 17.7969 44.625 17.3689 44.8344 17.0119C44.94 16.8318 45.0404 16.6639 45.1208 16.5332C45.1607 16.4684 45.1983 16.4084 45.2304 16.3591C45.2446 16.3372 45.3048 16.2427 45.3732 16.1655L46.8704 17.4915C46.9196 17.436 46.9429 17.3944 46.9062 17.4508C46.8874 17.4796 46.8599 17.5232 46.8242 17.5812C46.7535 17.6961 46.6607 17.8512 46.5596 18.0236C46.3555 18.3717 46.1312 18.7671 45.9959 19.0257L44.2239 18.0984ZM45.431 16.1055C45.738 15.8122 46.0953 15.8232 46.1932 15.8297C46.3232 15.8385 46.4219 15.8708 46.4621 15.8848C46.5512 15.9158 46.6194 15.9533 46.646 15.9681C46.711 16.0045 46.7711 16.0454 46.8132 16.0752C46.9051 16.1402 47.0114 16.2233 47.1143 16.3098L45.8272 17.8406C45.7557 17.7805 45.6944 17.7336 45.6589 17.7085C45.6374 17.6933 45.6438 17.6992 45.6694 17.7135C45.6762 17.7173 45.7282 17.747 45.8052 17.7738C45.8394 17.7857 45.933 17.8168 46.059 17.8252C46.1529 17.8315 46.5074 17.8432 46.8126 17.5516L45.431 16.1055ZM47.1148 16.3103C47.2284 16.4059 47.4888 16.5705 47.8581 16.7527C48.2127 16.9278 48.605 17.0883 48.9443 17.1935L48.352 19.1038C47.8957 18.9623 47.4051 18.7595 46.9729 18.5462C46.5553 18.34 46.1248 18.0912 45.8266 17.8402L47.1148 16.3103ZM48.9454 17.1939C49.7751 17.4522 50.5938 17.5687 51.67 17.5687V19.5687C50.4292 19.5687 49.4055 19.4318 48.3508 19.1035L48.9454 17.1939ZM51.6663 17.5687C53.3275 17.5626 54.5903 17.2202 55.5775 16.5785C56.5627 15.9381 57.3653 14.94 58.0025 13.4596L59.8396 14.2502C59.0879 15.9967 58.0621 17.3489 56.6675 18.2554C55.2749 19.1605 53.6066 19.5615 51.6737 19.5687L51.6663 17.5687ZM58.0026 13.4592C58.8746 11.4351 59.326 8.98268 59.4359 5.29746L61.435 5.35704C61.3215 9.16598 60.8517 11.9008 59.8394 14.2505L58.0026 13.4592ZM59.4358 5.29811C59.4545 4.65721 59.4725 4.28883 59.4565 4.02308C59.4396 3.7415 59.3926 3.89274 59.5604 4.04343C59.6965 4.1657 59.7889 4.1116 59.437 4.09349C59.1216 4.07727 58.6872 4.09279 57.9849 4.10681L57.945 2.1072C58.579 2.09455 59.1304 2.07507 59.5398 2.09614C59.9125 2.11532 60.4686 2.17082 60.8969 2.55562C61.3569 2.96884 61.4308 3.53554 61.4529 3.903C61.476 4.28627 61.4512 4.80049 61.435 5.35639L59.4358 5.29811ZM57.9865 4.10677C52.4963 4.22553 49.1479 5.1536 47.0856 6.8525L45.814 5.30884C48.4136 3.16731 52.3372 2.2285 57.9433 2.10724L57.9865 4.10677ZM47.084 6.85385C45.9373 7.79437 45.2026 9.45205 45.2026 11.4879H43.2026C43.2026 9.00331 44.101 6.71389 45.8156 5.30748L47.084 6.85385ZM45.2026 11.4879C45.2026 12.5582 45.4727 13.8434 45.8412 14.6314L44.0296 15.4786C43.5188 14.3864 43.2026 12.8046 43.2026 11.4879H45.2026ZM45.8442 14.6378L46.0187 15.0178L44.2011 15.8523L44.0266 15.4722L45.8442 14.6378ZM45.9457 15.984L45.4991 16.6641L43.8274 15.5662L44.274 14.8861L45.9457 15.984ZM45.4997 16.6631C44.9187 17.5499 44.4643 18.3757 44.084 19.2339L42.2555 18.4236C42.6848 17.4549 43.1934 16.5338 43.8268 15.5671L45.4997 16.6631ZM44.0825 19.2372C43.7005 20.091 43.1909 21.4685 43.0794 21.917L41.1385 21.4345C41.2922 20.8162 41.8574 19.3134 42.257 18.4203L44.0825 19.2372ZM43.0785 21.9207C43.0511 22.0292 43.0179 22.1484 42.9819 22.2501C42.9672 22.2916 42.9352 22.3795 42.8847 22.4703C42.8669 22.5023 42.7991 22.6251 42.6709 22.7412C42.6051 22.8008 42.4618 22.9157 42.2426 22.9718C41.9837 23.0381 41.6966 23.0009 41.4531 22.8459L42.5275 21.159C42.2867 21.0056 42.0024 20.9688 41.7466 21.0343C41.5304 21.0897 41.3904 21.2026 41.328 21.2591C41.2067 21.369 41.1464 21.481 41.1369 21.4981C41.103 21.5591 41.0902 21.6007 41.0965 21.583C41.1023 21.5664 41.118 21.5156 41.1394 21.4308L43.0785 21.9207ZM41.1703 22.5747C41.1018 22.4766 41.0669 22.3869 41.0626 22.3764C41.0504 22.3465 41.0419 22.3216 41.0375 22.3081C41.0282 22.2801 41.0211 22.2553 41.0171 22.2404C41.0082 22.2084 40.9995 22.1735 40.9918 22.1413C40.9758 22.0746 40.9563 21.9876 40.935 21.8883C40.892 21.6883 40.8379 21.4211 40.784 21.1327L42.75 20.7653C42.8008 21.0369 42.8513 21.2865 42.8904 21.4682C42.91 21.5597 42.9259 21.6298 42.9367 21.675C42.9424 21.6988 42.945 21.7085 42.945 21.7084C42.9448 21.7077 42.9441 21.7051 42.9429 21.701C42.9417 21.6972 42.9394 21.6893 42.9359 21.6788C42.933 21.67 42.9259 21.649 42.9149 21.6221C42.9093 21.6084 42.9 21.5863 42.8869 21.5596C42.8758 21.5371 42.8506 21.4878 42.8104 21.4302L41.1703 22.5747ZM40.7858 21.142C40.296 18.6525 39.6412 16.5784 38.7671 14.7043L40.5796 13.8589C41.534 15.9051 42.2331 18.1382 42.7482 20.7559L40.7858 21.142ZM38.7667 14.7034L38.4038 13.9233L40.2171 13.0797L40.58 13.8598L38.7667 14.7034ZM38.5069 12.9063L38.8279 12.4729L40.435 13.6633L40.114 14.0967L38.5069 12.9063ZM38.8234 12.479C39.7308 11.2342 40.2005 9.11937 39.8999 7.21683L41.8754 6.90472C42.2448 9.24265 41.7095 11.915 40.4396 13.6572L38.8234 12.479ZM39.9002 7.21828C39.6074 5.38279 38.8312 4.18071 37.3705 3.25038L38.4449 1.56348C40.4178 2.82006 41.498 4.5383 41.8752 6.90327L39.9002 7.21828ZM37.3694 3.24966C35.2216 1.87768 32.0801 1.13852 27.189 1.03979L27.2293 -0.959799C32.2481 -0.8585 35.8343 -0.104163 38.446 1.56419L37.3694 3.24966ZM27.1887 1.03979L25.2346 0.999784L25.2755 -0.999797L27.2296 -0.959793L27.1887 1.03979ZM25.9222 0.744891L25.6989 0.944914L24.3646 -0.544883L24.5879 -0.744905L25.9222 0.744891ZM30.0753 0.724758C32.4273 0.950491 34.4317 1.38752 36.0121 2.04441C37.584 2.69779 38.8274 3.60784 39.5081 4.83574L37.7589 5.80542C37.3788 5.11978 36.5879 4.44965 35.2444 3.89123C33.9094 3.33632 32.1173 2.92993 29.8842 2.71561L30.0753 0.724758ZM39.509 4.83732C40.3952 6.44287 40.5737 8.71398 40.0694 10.6707L38.1327 10.1716C38.5357 8.60792 38.3513 6.87859 37.758 5.80384L39.509 4.83732ZM40.0677 10.6773C39.9808 11.0055 39.8194 11.4376 39.6766 11.7751C39.6042 11.9462 39.5266 12.1167 39.4546 12.2539C39.4208 12.3182 39.374 12.4028 39.3183 12.4826C39.2929 12.5191 39.2416 12.5896 39.167 12.6618C39.1296 12.6981 39.0627 12.758 38.9679 12.8137C38.8799 12.8655 38.6988 12.9547 38.4521 12.9547V10.9547C38.2106 10.9547 38.0354 11.0419 37.9539 11.0898C37.8657 11.1417 37.8059 11.1959 37.7762 11.2246C37.7171 11.2818 37.6837 11.3302 37.6782 11.3381C37.6624 11.3608 37.6636 11.3626 37.6838 11.3243C37.7195 11.2563 37.7727 11.1421 37.8347 10.9958C37.9606 10.6982 38.0818 10.3635 38.1345 10.165L40.0677 10.6773ZM38.4521 12.9547C38.2153 12.9547 38.0451 12.8702 37.9936 12.8439C37.9221 12.8072 37.8699 12.7696 37.8432 12.7494C37.7886 12.7082 37.7489 12.6695 37.732 12.6528C37.6938 12.6149 37.6617 12.5778 37.643 12.5558C37.6013 12.5069 37.555 12.4481 37.5109 12.3907C37.4199 12.2724 37.3049 12.1163 37.1867 11.952L38.8101 10.7838C38.9222 10.9396 39.0236 11.0769 39.0966 11.1719C39.1345 11.2211 39.1571 11.2491 39.1665 11.2601C39.1733 11.2682 39.1623 11.2544 39.14 11.2324C39.1311 11.2236 39.0981 11.1909 39.0489 11.1537C39.0249 11.1356 38.975 11.0995 38.9055 11.0639C38.8696 11.0455 38.8162 11.0209 38.7485 10.9998C38.683 10.9793 38.5802 10.9547 38.4521 10.9547V12.9547ZM37.1794 11.9416C36.0073 10.2681 34.8121 9.12908 32.6702 7.67474L33.7936 6.0201C36.0902 7.57943 37.4772 8.88063 38.8175 10.7942L37.1794 11.9416ZM32.6682 7.67342C32.268 7.40034 32.0757 7.27813 31.9645 7.21988C31.9174 7.19523 31.9167 7.19939 31.945 7.20724C31.9828 7.21773 32.0196 7.22068 32.0385 7.22068V5.22068C32.3531 5.22068 32.6151 5.30295 32.8924 5.44818C33.1249 5.56995 33.4141 5.76111 33.7956 6.02142L32.6682 7.67342ZM32.0385 7.22068C32.056 7.22068 32.0912 7.21519 32.132 7.18772C32.1734 7.15983 32.2141 7.11285 32.2359 7.05017L30.3476 6.39131C30.6056 5.65179 31.3059 5.22068 32.0385 5.22068V7.22068ZM32.2359 7.05017C32.2157 7.10821 32.2465 7.04874 32.2327 6.93703C32.217 6.81021 32.1616 6.74347 32.1712 6.75534C32.1919 6.78104 32.2591 6.85171 32.4324 6.98673C32.6 7.1173 32.8289 7.27936 33.1444 7.49348L32.0213 9.14835C31.4178 8.7388 30.9119 8.37961 30.6147 8.01128C30.4394 7.79396 30.2897 7.52095 30.2479 7.18265C30.2079 6.85945 30.2806 6.58329 30.3476 6.39131L32.2359 7.05017ZM33.1443 7.49342C34.9382 8.7106 36.1057 9.81438 37.2686 11.3955L35.6575 12.5805C34.6431 11.2013 33.6471 10.2515 32.0214 9.14841L33.1443 7.49342ZM37.2679 11.3945C37.4941 11.7011 37.7718 12.1083 37.8984 12.3178L36.1863 13.3517C36.1035 13.2145 35.8648 12.8616 35.6583 12.5815L37.2679 11.3945ZM37.8993 12.3194L38.0878 12.6328L36.3738 13.6634L36.1853 13.3501L37.8993 12.3194ZM37.6618 14.0505L37.3966 14.1771L36.5345 12.3725L36.7997 12.2458L37.6618 14.0505ZM37.4007 14.1751C36.3493 14.6834 35.0205 14.9234 33.7514 14.9406C32.4839 14.9578 31.1561 14.7542 30.11 14.2685L30.9522 12.4545C31.6437 12.7755 32.6504 12.9553 33.7243 12.9408C34.7966 12.9263 35.8162 12.7196 36.5304 12.3745L37.4007 14.1751ZM30.1121 14.2695C28.5808 13.563 27.4956 12.2071 26.731 10.3482L28.5806 9.58734C29.2257 11.1555 30.0247 12.0265 30.95 12.4535L30.1121 14.2695ZM26.7297 10.345C26.0241 8.61267 25.5574 6.10444 25.4425 3.59956L27.4404 3.50789C27.5488 5.87021 27.9894 8.13584 28.5819 9.59056L26.7297 10.345ZM25.4424 3.59612C25.4216 3.10738 25.3872 2.45662 25.367 2.16166L27.3624 2.02545C27.3841 2.3439 27.4194 3.01328 27.4406 3.51132L25.4424 3.59612ZM25.3666 2.15574L25.3317 1.59568L27.3279 1.47131L27.3628 2.03137L25.3666 2.15574ZM26.3608 0.533976L27.6519 0.573981L27.5899 2.57302L26.2988 2.53302L26.3608 0.533976ZM27.6583 0.574202C28.3855 0.601445 29.4642 0.66914 30.0704 0.724298L29.8891 2.71607C29.3229 2.66455 28.28 2.5989 27.5835 2.5728L27.6583 0.574202ZM59.8272 5.17882C59.8078 5.42592 59.7735 6.06397 59.7527 6.59327L57.7543 6.51483C57.7754 5.97735 57.8109 5.30859 57.8333 5.0223L59.8272 5.17882ZM59.7526 6.59691C59.6449 9.10785 59.1647 11.7189 58.4572 13.4414L56.6072 12.6815C57.1978 11.2436 57.6528 8.88079 57.7544 6.51119L59.7526 6.59691ZM58.4554 13.4458C57.915 14.7437 56.9974 16.0994 56.0743 16.7564L54.9145 15.1271C55.4151 14.7707 56.1445 13.7928 56.609 12.6771L58.4554 13.4458ZM56.0758 16.7554C54.0849 18.1779 50.8896 18.3853 48.3155 17.4557L48.9948 15.5746C51.1104 16.3386 53.582 16.0792 54.913 15.1281L56.0758 16.7554ZM48.3164 17.456C47.9759 17.3335 47.5475 17.0978 47.2215 16.8946C47.0513 16.7885 46.8818 16.6744 46.7412 16.5661C46.6721 16.513 46.5949 16.4498 46.5237 16.3809C46.4846 16.343 46.3267 16.1935 46.2323 15.9679L48.0771 15.1955C48.03 15.0831 47.9736 15.0117 47.9567 14.9907C47.9339 14.9623 47.9173 14.9463 47.9152 14.9443C47.9111 14.9404 47.9233 14.9522 47.9605 14.9809C48.0325 15.0362 48.1435 15.1125 48.2795 15.1973C48.5659 15.3758 48.8528 15.5235 48.9938 15.5743L48.3164 17.456ZM46.2238 15.9471C46.1134 15.6658 46.1523 15.4158 46.1848 15.2863C46.2191 15.1498 46.2731 15.0401 46.3119 14.9695C46.3902 14.8276 46.4933 14.692 46.5892 14.5755C46.788 14.3339 47.0889 14.0154 47.4926 13.6096L48.9104 15.0202C48.5115 15.4212 48.2681 15.6828 48.1337 15.8462C48.0629 15.9322 48.0522 15.9554 48.0635 15.9349C48.0689 15.9251 48.1011 15.8668 48.1246 15.7732C48.1464 15.6866 48.1855 15.471 48.0855 15.2163L46.2238 15.9471ZM47.4899 13.6124C48.7377 12.3484 50.5004 11.1133 52.294 10.2251L53.1815 12.0174C51.5554 12.8227 49.9823 13.9345 48.9131 15.0175L47.4899 13.6124ZM52.2888 10.2277C52.5193 10.1119 52.6846 10.0245 52.8061 9.95343C52.9312 9.88026 52.9769 9.84324 52.9863 9.83484C52.987 9.83424 52.9367 9.87997 52.8975 9.97263C52.8595 10.0623 52.8613 10.1272 52.8613 10.1144H54.8613C54.8613 10.2884 54.8405 10.5133 54.7391 10.7528C54.6363 10.9952 54.4818 11.1806 54.3194 11.3258C54.0396 11.5759 53.633 11.7905 53.1867 12.0148L52.2888 10.2277ZM52.8613 10.1144C52.8613 10.1713 52.8881 10.2449 52.9455 10.2991C52.9715 10.3236 52.9976 10.3383 53.0184 10.3462C53.0287 10.3501 53.037 10.3522 53.0429 10.3533C53.0489 10.3544 53.052 10.3544 53.0518 10.3544V8.35436C54.0164 8.35436 54.8613 9.07507 54.8613 10.1144H52.8613ZM53.0518 10.3544C53.1533 10.3544 53.1808 10.332 53.0671 10.3689C52.9822 10.3964 52.8607 10.4429 52.7038 10.5115C52.3919 10.6478 51.9905 10.8489 51.5496 11.0946L50.576 9.34762C51.0563 9.07993 51.5168 8.84764 51.9028 8.67893C52.0949 8.59498 52.2814 8.52111 52.4503 8.46634C52.5904 8.42091 52.8177 8.35436 53.0518 8.35436V10.3544ZM51.5556 11.0913C50.0834 11.925 49.0422 12.6951 47.8494 13.8473L46.4599 12.4089C47.7795 11.1342 48.9576 10.2641 50.5701 9.35097L51.5556 11.0913ZM47.8455 13.8512L46.9173 14.7379L45.5357 13.2918L46.4639 12.4051L47.8455 13.8512ZM45.2576 14.2622L45.1878 13.9889L47.1256 13.4942L47.1954 13.7675L45.2576 14.2622ZM45.1943 14.013C44.6082 11.9355 44.752 9.6093 45.6844 7.90715L47.4385 8.86803C46.8077 10.0195 46.6444 11.7871 47.1191 13.47L45.1943 14.013ZM45.6863 7.90382C46.5315 6.37467 48.459 5.21531 50.7245 4.56598L51.2755 6.48857C49.2142 7.07938 47.9034 8.02691 47.4367 8.87136L45.6863 7.90382ZM50.7188 4.56764C52.5827 4.02136 55.4912 3.65458 57.9959 3.62723L58.0177 5.62711C55.6372 5.6531 52.9207 6.0064 51.2813 6.48691L50.7188 4.56764ZM57.999 3.6272L58.8574 3.62054L58.8729 5.62048L58.0145 5.62714L57.999 3.6272ZM59.8625 4.693L59.8277 5.17306L57.8329 5.02806L57.8678 4.54801L59.8625 4.693Z" fill="#315818" mask="url(#path-9-inside-1_176_50)"/>
<path d="M93.1462 52.2185C93.8793 52.2185 94.6109 51.9751 95.2868 51.4487H95.3044C96.3365 50.6043 96.6928 49.1411 96.8057 48.559C96.8438 48.3713 96.8629 48.1646 96.8805 47.8655V47.8083C96.8805 47.5459 96.8438 47.3216 96.7309 47.1149C96.5814 46.87 96.3556 46.7205 96.055 46.7205H96.0184C95.3425 46.8143 95.2105 47.5092 95.1358 48.1837C94.9862 49.0282 94.7986 49.7788 94.1227 50.2289C93.935 50.3052 93.7855 50.3418 93.6344 50.3418C93.4468 50.3418 93.2782 50.2861 93.1286 50.1732C92.4909 49.5912 92.1712 48.4285 92.0393 47.7907C91.9088 47.2277 91.815 46.4771 91.7402 45.5754C91.683 45.1253 91.6464 44.6195 91.6464 44.0184C91.6464 43.6049 91.664 43.212 91.683 42.7986C91.7578 41.7664 91.9455 40.941 92.2094 40.2841C92.5085 39.5892 92.9219 39.1024 93.4277 38.8767L93.5787 38.8209L93.7092 38.7828H93.7283C93.8031 38.7462 93.9159 38.7271 93.9907 38.7271C94.1608 38.7271 94.2913 38.7828 94.4423 38.8957L94.63 39.1024C94.7604 39.3077 94.8733 39.6083 94.9672 39.9645C95.1358 40.6785 95.3982 41.4483 96.0741 41.5597H96.0932C96.2618 41.5597 96.5814 41.504 96.6928 41.1843C96.769 40.9967 96.8057 40.7914 96.8057 40.5847V40.5275C96.8057 40.2841 96.7866 40.1155 96.75 39.9469C96.5242 38.84 96.1298 38.0512 95.5859 37.6011C95.1167 37.2258 94.4423 37 93.5787 37C93.4101 37 93.2401 37 93.0348 37.0191C92.2094 37.132 91.5144 37.4692 90.9514 37.9574C90.4441 38.4265 90.0322 39.0262 89.7507 39.7959C89.4692 40.5466 89.2624 41.3163 89.1686 42.0479C89.0748 42.7238 89.0191 43.5683 89 44.5257V44.769C89 45.6502 89.0557 46.5519 89.2067 47.565C89.3753 48.6528 89.6759 49.5912 90.0879 50.3228C90.557 51.1482 91.1581 51.7302 91.9088 52.0117C92.2841 52.1437 92.7152 52.2185 93.1462 52.2185Z" fill="#315818"/>
<path d="M102.266 52.2185C102.886 52.2185 103.43 52.0865 103.88 51.8241C104.481 51.4869 105.006 50.9605 105.418 50.2861C105.776 49.704 106.075 48.9915 106.281 48.1837V48.1646C106.544 46.9081 106.695 45.6692 106.695 44.4875C106.695 43.624 106.62 42.7238 106.469 41.7473C106.356 41.0538 106.188 40.397 105.963 39.815C105.682 39.12 105.324 38.5394 104.893 38.0893C104.405 37.6011 103.767 37.3196 102.961 37.2258C102.792 37.2067 102.622 37.1877 102.453 37.1877C101.871 37.1877 101.346 37.2815 100.877 37.5073C100.278 37.7506 99.7704 38.1832 99.3202 38.84H99.3012C98.7573 39.683 98.401 40.6595 98.2133 41.8412C98.0623 42.6299 98.0066 43.4744 98.0066 44.3556C98.0066 44.6561 98.0257 44.9567 98.0447 45.2939V45.3511C98.1004 46.5328 98.269 47.584 98.5315 48.5033C98.8877 49.8169 99.3569 50.7553 99.9771 51.374C100.371 51.7684 100.877 52.0308 101.497 52.1246C101.741 52.1803 102.003 52.2185 102.266 52.2185ZM100.747 44.2617C100.747 44.0184 100.747 43.7559 100.764 43.4935C100.822 42.3484 100.971 41.4101 101.197 40.6404C101.459 39.9088 101.928 39.2901 102.434 38.9895C102.585 38.8957 102.754 38.8576 102.923 38.8576C103.035 38.8576 103.185 38.8766 103.336 38.9338C103.824 39.1581 104.2 39.6654 104.462 40.4718C104.705 41.2034 104.855 42.1608 104.893 43.3234C104.912 43.624 104.912 43.9055 104.912 44.206C104.912 44.8819 104.893 45.5945 104.818 46.3451C104.743 47.1148 104.631 47.9769 104.481 48.5399L104.368 48.8405C104.18 49.3287 103.918 49.7231 103.579 50.0412C103.317 50.3052 103.054 50.4356 102.773 50.4356C102.754 50.4356 102.735 50.4356 102.716 50.4166H102.66C102.34 50.3799 102.022 50.0794 101.722 49.5164C101.346 48.8038 101.084 47.9022 100.915 46.7952C100.803 45.9507 100.747 45.1062 100.747 44.2617Z" fill="#315818"/>
<path d="M109.434 52.2185H109.452C110.315 52.2185 110.823 51.7684 110.935 50.9239C110.953 50.7171 110.972 50.5104 110.972 50.267C110.972 50.1541 110.972 50.0237 110.953 49.8917C110.897 48.4285 110.859 45.5006 110.859 43.6621V42.9481C111.385 44.338 112.06 46.1017 112.173 46.3451C112.473 47.002 112.774 47.7717 113.074 48.6338V48.6528L113.13 48.7657C113.13 48.7848 113.13 48.7848 113.149 48.8038L113.994 51.3358C114.218 52.0308 114.444 52.3504 115.344 52.2185H115.7C116.169 52.2185 116.282 51.3549 116.34 51.1482C116.451 50.6614 116.414 50.1175 116.433 49.5354C116.47 48.6338 116.489 47.6397 116.489 46.5518V45.5388C116.489 44.3746 116.414 43.0419 116.34 41.7664C116.34 41.4482 116.321 41.1096 116.301 40.7914C116.282 40.4909 116.263 39.5892 116.263 39.271V38.7828C116.263 38.6142 116.263 38.4456 116.246 38.2579C116.227 37.9574 116.169 37.714 116.058 37.5439C115.907 37.3005 115.7 37.1877 115.419 37.1877C114.519 37.1877 114.294 37.6568 114.275 38.0703C114.256 38.1641 114.256 38.2579 114.256 38.3708C114.256 38.4456 114.275 38.5394 114.275 38.6523V38.689C114.275 39.8707 114.576 41.6168 114.576 42.7604V42.7795C114.576 43.6988 114.557 44.5623 114.557 46.4771V46.5518C114.557 46.7586 114.576 47.2087 114.557 47.4154C113.486 44.6752 112.154 40.9219 111.929 40.397L111.797 40.0965C111.742 39.9469 111.686 39.7593 111.629 39.5716L111.573 39.4587C111.198 38.4456 110.765 37.3005 109.565 37.2624C108.852 37.2624 108.383 37.6949 108.251 38.5013C108.214 38.7637 108.195 39.0262 108.195 39.252V40.809L108.214 43.061C108.214 43.9436 108.251 46.2704 108.251 47.2644C108.251 48.0151 108.251 48.7848 108.233 49.5164C108.214 49.6293 108.214 49.7597 108.214 49.8726C108.195 50.0237 108.195 50.1923 108.195 50.3609C108.195 50.5104 108.195 50.6805 108.214 50.8667C108.289 51.6936 108.702 52.2185 109.434 52.2185Z" fill="#315818"/>
<path d="M120.355 52.2185H120.654C121.236 52.2185 121.761 52.1437 122.212 52.0117C123.582 51.6364 124.576 49.4973 124.407 48.4461C124.313 46.9829 123.469 45.8202 122.662 44.8247C122.268 44.3556 121.931 43.8307 121.592 43.2677H121.575C121.293 42.8367 121.048 42.3675 120.786 41.7473C120.598 41.2972 120.56 40.8281 120.56 40.3222C120.56 39.834 120.617 39.8897 120.88 39.5144C121.424 38.8766 121.967 39.271 122.494 39.6654C122.756 39.8707 123 40.0026 123.225 40.0774C123.319 40.1155 123.375 40.1155 123.432 40.1155C123.637 40.1155 123.844 39.9836 123.995 39.7768C124.07 39.6654 124.107 39.5335 124.126 39.3649C124.126 39.2329 124.089 39.0834 124.013 38.9514C123.807 38.4265 123.356 38.0131 123.038 37.8078C122.418 37.4134 121.761 37.1877 121.105 37.1877C120.918 37.1877 120.692 37.2258 120.504 37.2624C119.679 37.4501 118.984 37.8826 118.478 38.5951C118.139 39.0452 117.952 39.6273 117.915 40.3032C117.802 41.9174 118.965 43.9055 120.485 46.1017L121.048 46.9081H121.067C121.404 47.3582 121.63 47.8464 121.743 48.3156C121.761 48.5223 121.78 48.6719 121.761 48.8214C121.761 49.6483 120.992 50.5295 120.372 50.5295H120.317C120.054 50.5295 119.735 50.3418 119.378 50.0237L118.984 49.704C118.834 49.6102 118.685 49.5721 118.515 49.5721C118.497 49.5721 118.459 49.5721 118.403 49.5911C118.122 49.6293 118.009 49.9298 117.934 50.0046L117.915 50.0237C117.84 50.1732 117.802 50.3227 117.802 50.4738C117.783 50.7362 117.858 50.9605 118.009 51.1482C118.216 51.4487 118.478 51.6745 118.815 51.8431C119.34 52.1056 119.754 52.2185 120.355 52.2185Z" fill="#315818"/>
<path d="M129.023 52.519C129.267 52.519 129.474 52.4809 129.642 52.4252C132.794 51.4678 132.945 46.6647 132.945 43.7926V42.9862C132.945 42.2737 132.907 41.5787 132.907 40.96V40.9409C132.907 40.4527 132.888 39.9469 132.888 39.4396V38.8576C132.888 38.7271 132.888 38.5585 132.869 38.3884C132.832 37.3562 132.325 37.2067 132.026 37.2067H132.007C131.481 37.2067 131.218 37.4325 131.143 37.8078C131.069 38.0893 131.031 38.3136 131.031 38.5394V38.689C131.031 39.3648 131.05 40.0964 131.05 40.7914C131.05 42.5552 131.031 44.2999 130.994 46.0636C130.937 47.0576 130.862 47.996 130.655 49.1029C130.506 49.9298 129.792 50.267 129.792 50.267H129.774C129.136 50.267 128.892 49.122 128.573 46.0827C128.554 45.9317 128.554 45.7821 128.554 45.6502C128.535 44.9757 128.516 44.3746 128.516 43.9245V43.9055C128.516 43.643 128.497 43.3615 128.497 43.1357V40.809C128.497 40.6785 128.516 40.5099 128.516 40.3222V40.3032C128.516 40.0583 128.573 39.7768 128.573 39.4953V39.0643C128.573 38.5394 128.441 38.126 128.254 37.8254C128.028 37.4325 127.672 37.2067 127.203 37.2067H127.183C126.64 37.2067 126.247 37.4134 126.021 37.8635V37.8826C125.871 38.277 125.777 38.6699 125.777 39.0833V40.1155C125.777 40.7342 125.739 41.372 125.739 42.0288C125.739 43.0419 125.777 44.2251 125.871 45.5754C125.908 46.1384 126.059 48.1089 126.64 49.9474C126.902 50.7728 127.26 51.4678 127.729 51.9369C128.085 52.3504 128.516 52.519 129.023 52.519Z" fill="#315818"/>
<path d="M136.791 52.3313C137.129 52.3313 137.467 52.2932 137.824 52.2375C138.762 52.0308 139.568 51.6745 140.169 51.1863C140.75 50.7728 141.163 50.248 141.407 49.6102C141.594 49.141 141.707 48.6528 141.707 48.1646C141.707 48.0532 141.707 47.9212 141.688 47.8274C141.633 47.1896 141.482 46.5885 141.2 46.0827L141.182 46.0079C140.807 45.3129 140.131 44.6371 139.287 44.0931C139.963 43.6621 140.487 43.1739 140.826 42.649L140.844 42.5727C141.125 42.1036 141.276 41.5596 141.332 41.0348C141.351 40.9409 141.351 40.809 141.351 40.6976C141.351 40.2841 141.238 39.834 141.05 39.4206C140.807 38.8766 140.394 38.4075 139.812 38.0131C139.212 37.6011 138.404 37.2815 137.467 37.0938C137.11 37.0381 136.772 37 136.435 37C136.077 37 135.759 37.0381 135.459 37.1129C135.177 37.2067 134.934 37.3196 134.765 37.5073C134.614 37.6568 134.484 37.8635 134.484 38.0893V38.8018C134.465 38.9705 134.446 39.1391 134.446 39.3458V40.6404C134.446 40.9028 134.465 41.1477 134.465 41.4101V41.523C134.465 42.2737 134.484 43.0053 134.484 43.7369C134.484 44.0931 134.501 44.5432 134.501 44.9933V45.1443C134.501 45.6692 134.52 46.2513 134.52 46.8143C134.52 47.3773 134.52 47.9212 134.501 48.4651C134.501 48.6337 134.501 48.8405 134.484 49.0472C134.465 49.3668 134.446 49.6659 134.446 49.9665V50.3227C134.446 50.8109 134.539 51.2244 134.708 51.5235C134.915 51.8988 135.233 52.2184 135.665 52.2184H135.815C136.115 52.2932 136.435 52.3313 136.791 52.3313ZM137.222 42.7985C137.222 42.7238 137.241 42.6109 137.241 42.517V42.498C137.241 42.4423 137.241 42.3484 137.261 42.2912V42.1417C137.261 41.7473 137.28 41.2972 137.28 40.8852C137.28 40.3222 137.222 39.7211 137.222 39.1772V39.0262C137.222 38.9338 137.241 38.8576 137.261 38.8018C137.28 38.6699 137.335 38.6332 137.41 38.5951C137.448 38.5951 137.467 38.5761 137.467 38.5761C137.598 38.5761 137.73 38.6142 137.936 38.6699C138.856 39.0452 139.436 39.7021 139.53 40.5275V40.809C139.53 41.0905 139.493 41.3163 139.4 41.5787C139.212 42.1417 138.837 42.649 138.255 43.08C138.011 43.2296 137.843 43.3058 137.73 43.3615C137.561 43.3058 137.41 43.2677 137.28 43.2486L137.241 43.1357C137.222 43.0053 137.222 42.9114 137.222 42.7985ZM137.28 50.0412V49.9107C137.28 49.273 137.335 48.6161 137.335 47.9769C137.335 47.4902 137.316 47.021 137.316 46.5518V46.3832C137.297 46.326 137.297 46.2132 137.297 46.1574V46.1384C137.297 46.0445 137.28 45.9141 137.28 45.8012C137.28 45.6692 137.28 45.5563 137.297 45.4449C137.316 45.332 137.391 45.1634 137.561 45.1443H137.579C137.636 45.1443 137.879 45.1634 138.442 45.5197C139.099 45.9888 139.53 46.5709 139.737 47.1705C139.85 47.4711 139.888 47.7526 139.888 48.0532V48.3522C139.775 49.2906 139.118 50.0236 138.086 50.4547C137.86 50.5295 137.711 50.5676 137.561 50.5676C137.561 50.5676 137.542 50.5485 137.485 50.5485C137.41 50.5104 137.335 50.4547 137.316 50.3418C137.297 50.267 137.28 50.1351 137.28 50.0412Z" fill="#315818"/>
<path d="M146.642 52.2185C147.092 52.2185 147.505 52.1994 147.843 52.1804C148.406 52.1246 148.762 51.956 148.969 51.6745V51.6555C149.043 51.4869 149.101 51.3359 149.101 51.2054C149.101 51.0544 149.043 50.9048 148.969 50.7729C148.969 50.7553 148.95 50.7553 148.95 50.7553C148.8 50.4738 148.538 50.3228 148.162 50.3228H148.143L147.618 50.3609C147.412 50.3799 147.224 50.3799 146.998 50.3799C146.791 50.3799 146.604 50.3799 146.398 50.3609C145.835 50.2289 145.479 49.7231 145.366 48.8977C145.366 48.8214 145.347 48.7848 145.347 48.7276C145.309 48.3904 145.179 46.8143 145.179 46.6457L145.198 46.1194C145.198 45.7821 145.61 45.7631 145.948 45.7631H146.83C146.979 45.7821 147.111 45.7821 147.224 45.7821H147.373C147.936 45.7821 148.124 45.4068 148.218 45.1444C148.256 45.0505 148.256 44.9567 148.256 44.8819C148.256 44.6195 148.181 44.4128 147.975 44.2061L147.956 44.187C147.806 44.0184 147.524 43.9993 147.299 43.9993H146.51C146.435 43.9993 146.379 44.0184 146.322 44.0184C146.173 44.0184 146.06 44.0184 145.948 44.0374H145.723C145.554 44.0374 145.46 44.0184 145.385 43.9803L145.366 43.9627C145.309 43.9246 145.234 43.8117 145.234 43.3997C145.253 43.3058 145.253 43.2296 145.253 43.1358C145.292 43.0243 145.292 42.9305 145.292 42.8543V42.8367C145.309 41.9731 145.385 41.1096 145.403 40.2284V40.0408C145.422 39.5716 145.554 39.252 145.742 39.1582C145.929 39.0834 146.136 39.0453 146.398 39.0453C146.492 39.0453 146.586 39.0643 146.661 39.0643H147.412C147.956 39.0643 148.275 38.9148 148.48 38.689C148.65 38.5204 148.725 38.3518 148.725 38.1641C148.725 38.0703 148.725 38.0131 148.687 37.9193C148.48 37.0748 146.791 37.2067 145.929 37.2067H144.558C144.277 37.2067 144.053 37.2258 143.865 37.2624C143.509 37.3196 143.246 37.4882 143.059 37.8254C142.908 38.1069 142.814 38.5394 142.795 39.1772V39.4397L142.701 40.9967C142.645 42.3294 142.72 43.7559 142.701 45.1634L142.683 45.313C142.664 46.6824 142.57 47.996 142.758 49.1792C142.814 49.7231 142.927 50.3418 143.17 50.8667C143.452 51.393 143.827 51.7684 144.371 51.9751H144.39C144.859 52.1246 145.403 52.1994 146.098 52.1994C146.286 52.2185 146.473 52.2185 146.642 52.2185Z" fill="#315818"/>
<path d="M152.009 52.2184C152.42 52.2184 152.74 52.1056 152.966 51.8622C153.19 51.5997 153.341 51.2992 153.378 50.9239V50.8667C153.397 50.6614 153.416 50.4737 153.416 50.248C153.416 50.1351 153.416 50.0046 153.397 49.8536C153.322 47.9021 153.303 45.1444 153.303 43.6049V42.0288C154.016 43.6049 154.653 46.1956 155.235 47.6397C155.404 47.996 155.555 48.3523 155.686 48.71L155.856 49.1029C155.911 49.4035 156.08 49.6102 156.342 49.7231C156.361 49.7231 156.381 49.7421 156.381 49.7421H156.436C156.53 49.7597 156.606 49.7788 156.681 49.7788C156.775 49.7788 156.869 49.7597 156.963 49.7231C157.206 49.6483 157.375 49.4782 157.449 49.2539V49.2349C157.769 47.8274 158.106 46.4947 158.481 45.2572C158.707 44.5066 158.914 43.3615 159.102 42.5728C159.138 43.1182 159.157 43.643 159.157 44.4685C159.157 45.2748 159.138 46.1017 159.121 46.9829L159.102 47.2834C159.083 48.2775 159.064 49.2349 159.064 50.1175V50.1732C159.064 50.3609 159.083 50.5676 159.138 50.8491C159.251 51.6745 159.607 52.1246 160.17 52.1437H160.19C160.546 52.1437 160.791 51.9927 160.921 51.6936C161.015 51.4868 161.053 51.2801 161.053 51.0543V50.9239L160.827 43.0243L160.772 41.7664C160.753 41.391 160.753 41.0538 160.733 40.6976V40.1346C160.753 40.0026 160.753 39.8707 160.753 39.7592C160.753 39.5144 160.733 39.2901 160.714 39.0452V38.9895C160.697 38.0512 160.264 37.4691 159.533 37.3196C159.439 37.3005 159.345 37.3005 159.251 37.3005C158.801 37.3005 158.445 37.4882 158.2 37.8445C157.901 38.2198 157.694 38.6333 157.6 39.0643C157.244 40.2841 156.737 42.3484 156.118 45.0124C155.536 43.8307 155.161 41.9174 154.898 41.3353L154.109 39.6082C154.092 39.5144 154.054 39.4206 154.016 39.3458C153.979 39.252 153.941 39.1772 153.922 39.0834C153.623 38.2389 153.228 37.5073 152.121 37.4325H152.102L152.045 37.4501C151.407 37.4501 151.014 37.6377 150.808 38.0893C150.657 38.4075 150.601 38.7637 150.601 39.2329C150.601 39.2901 150.601 39.3839 150.62 39.4587C150.62 39.8707 150.639 40.2841 150.639 40.6976C150.639 41.1096 150.639 41.523 150.657 41.935V46.1384C150.676 46.7395 150.676 47.3582 150.676 47.9403C150.676 48.5223 150.676 49.122 150.657 49.704V50.9239C150.733 51.7112 151.126 52.1437 151.821 52.1994C151.896 52.2184 151.951 52.2184 152.009 52.2184Z" fill="#315818"/>
<path d="M92.515 55.35H93.655L98.005 66H96.565L95.305 62.88H90.835L89.59 66H88.15L92.515 55.35ZM95.005 61.83L93.085 56.91L91.105 61.83H95.005ZM98.4866 62.1C98.4866 61.36 98.6366 60.685 98.9366 60.075C99.2466 59.455 99.6666 58.96 100.197 58.59C100.737 58.22 101.352 58.035 102.042 58.035C102.672 58.035 103.237 58.2 103.737 58.53C104.237 58.86 104.627 59.26 104.907 59.73V55.05H106.227V64.5C106.227 64.66 106.257 64.78 106.317 64.86C106.387 64.93 106.497 64.97 106.647 64.98V66C106.397 66.04 106.202 66.06 106.062 66.06C105.802 66.06 105.572 65.97 105.372 65.79C105.182 65.61 105.087 65.41 105.087 65.19V64.53C104.777 65.03 104.362 65.425 103.842 65.715C103.322 66.005 102.782 66.15 102.222 66.15C101.682 66.15 101.182 66.045 100.722 65.835C100.272 65.615 99.8766 65.315 99.5366 64.935C99.2066 64.555 98.9466 64.125 98.7566 63.645C98.5766 63.155 98.4866 62.64 98.4866 62.1ZM104.907 63.255V61.005C104.787 60.665 104.592 60.36 104.322 60.09C104.052 59.81 103.747 59.59 103.407 59.43C103.077 59.26 102.747 59.175 102.417 59.175C102.027 59.175 101.672 59.26 101.352 59.43C101.042 59.59 100.772 59.81 100.542 60.09C100.322 60.36 100.152 60.67 100.032 61.02C99.9116 61.37 99.8516 61.735 99.8516 62.115C99.8516 62.505 99.9166 62.875 100.047 63.225C100.187 63.575 100.377 63.885 100.617 64.155C100.867 64.425 101.152 64.635 101.472 64.785C101.802 64.935 102.157 65.01 102.537 65.01C102.777 65.01 103.022 64.965 103.272 64.875C103.532 64.785 103.777 64.66 104.007 64.5C104.237 64.34 104.432 64.155 104.592 63.945C104.752 63.725 104.857 63.495 104.907 63.255ZM120.235 66H118.915V61.62C118.915 60.8 118.78 60.195 118.51 59.805C118.25 59.415 117.86 59.22 117.34 59.22C116.81 59.22 116.33 59.415 115.9 59.805C115.47 60.185 115.165 60.68 114.985 61.29V66H113.665V61.62C113.665 60.79 113.535 60.185 113.275 59.805C113.015 59.415 112.625 59.22 112.105 59.22C111.585 59.22 111.105 59.41 110.665 59.79C110.235 60.16 109.93 60.655 109.75 61.275V66H108.43V58.17H109.63V59.85C109.95 59.27 110.365 58.825 110.875 58.515C111.385 58.195 111.96 58.035 112.6 58.035C113.25 58.035 113.77 58.215 114.16 58.575C114.55 58.925 114.79 59.38 114.88 59.94C115.23 59.32 115.655 58.85 116.155 58.53C116.655 58.2 117.225 58.035 117.865 58.035C118.315 58.035 118.69 58.12 118.99 58.29C119.3 58.45 119.545 58.68 119.725 58.98C119.905 59.27 120.035 59.615 120.115 60.015C120.195 60.415 120.235 60.85 120.235 61.32V66ZM122.288 66V58.17H123.608V66H122.288ZM122.288 56.7V55.05H123.608V56.7H122.288ZM132.54 66H131.22V61.62C131.22 60.79 131.09 60.185 130.83 59.805C130.58 59.415 130.195 59.22 129.675 59.22C129.315 59.22 128.955 59.31 128.595 59.49C128.245 59.67 127.93 59.915 127.65 60.225C127.38 60.525 127.185 60.875 127.065 61.275V66H125.745V58.17H126.945V59.85C127.155 59.48 127.425 59.16 127.755 58.89C128.085 58.62 128.46 58.41 128.88 58.26C129.3 58.11 129.74 58.035 130.2 58.035C130.65 58.035 131.025 58.12 131.325 58.29C131.635 58.45 131.875 58.68 132.045 58.98C132.225 59.27 132.35 59.615 132.42 60.015C132.5 60.415 132.54 60.85 132.54 61.32V66Z" fill="black"/>
</svg>
